<?xml version="1.0" encoding="iso-8859-1"?>
<!-- Generator: Adobe Illustrator 16.0.0, SVG Export Plug-In . SVG Version: 6.00 Build 0)  -->
<!DOCTYPE svg PUBLIC "-//W3C//DTD SVG 1.1//EN" "http://www.w3.org/Graphics/SVG/1.1/DTD/svg11.dtd">
<svg version="1.1" id="Capa_1" xmlns="http://www.w3.org/2000/svg" xmlns:xlink="http://www.w3.org/1999/xlink" x="0px" y="0px"
	 width="460px" height="460px" viewBox="0 0 460 460" style="enable-background:new 0 0 460 460;" xml:space="preserve">
<g>
	<g>
		<path d="M298.631,250.736c4.292-6.775,25.863-41.667,28.739-63.061c0.352-2.617,0.035-5.282-0.917-7.747
			c-2.988-7.727-25.197-52.587-51.563-65.235c-0.022-0.013-20.537-9.523-20.537-9.523l-8.949-7.553l-13.808,13.743l13.543,90.546
			c0.045,0.304-0.031,0.614-0.212,0.862l-13.806,18.896c-0.221,0.301-0.57,0.479-0.943,0.479s-0.725-0.178-0.943-0.479
			l-13.807-18.896c-0.181-0.248-0.257-0.558-0.211-0.862l13.545-90.559l-13.795-13.731l-8.953,7.553c0,0-20.401,9.328-20.911,9.572
			c-26.362,12.648-48.571,57.507-51.56,65.235c-0.952,2.466-1.267,5.128-0.919,7.748c2.876,21.394,24.447,56.285,28.741,63.062
			c2.99,4.711,8.068,7.29,13.264,7.289c2.733,0,5.497-0.725,8.003-2.217c1.263,3.545,3.061,6.845,5.275,9.873l0.009,175.239
			c0.002,10.511,8.524,19.029,19.032,19.028c10.514,0,19.032-8.52,19.03-19.03l0.203-154.465c1.342,0.113,2.681,0.179,4,0.179
			c1.272,0,2.56-0.063,3.85-0.17l-0.004,154.457c0,10.511,8.518,19.029,19.029,19.029c10.508,0,19.029-8.519,19.029-19.028
			l0.003-174.745c2.352-3.121,4.266-6.541,5.591-10.229c2.423,1.368,5.067,2.031,7.685,2.031
			C290.559,258.029,295.641,255.448,298.631,250.736z"/>
		<path d="M230.182,96.993c22.939,0,40.064-21.381,40.453-57.225C270.883,14.888,259.037,0,230.182,0
			c-28.859,0-40.705,14.888-40.461,39.768C190.116,75.612,207.231,96.993,230.182,96.993z"/>
		<path d="M429.655,230.834c-2.446-6.322-20.618-43.029-42.193-53.377c-0.019-0.011-16.804-7.792-16.804-7.792l-7.324-6.18
			l-11.461,11.408c0.001,0.006,0.005,0.011,0.006,0.017l10.253,76.209c0.034,0.222-0.021,0.447-0.153,0.629l-10.077,13.793
			c-0.161,0.221-0.418,0.35-0.688,0.35c-0.271,0-0.529-0.129-0.688-0.35l-10.078-13.793c-0.132-0.182-0.188-0.407-0.154-0.629
			l9.553-76.21c0.004-0.018,0.015-0.033,0.019-0.05l-11.429-11.374l-3.738,3.154c2.565,5.135,3.967,8.418,4.017,8.549
			c1.749,4.522,2.331,9.448,1.683,14.247c-3.073,22.866-23.166,56.42-30.122,67.483l-2.513,3.587
			c-5.447,6.731-13.595,10.666-22.396,10.666c-0.043,0-0.086,0-0.131,0v1.716c4.133,7.592,7.909,13.668,9.339,15.928
			c2.446,3.854,6.602,5.965,10.854,5.963c2.236,0,4.497-0.592,6.55-1.812c1.032,2.899,2.504,5.602,4.313,8.077l0.01,143.389
			c0,8.601,6.975,15.57,15.571,15.569c8.604,0,15.572-6.971,15.57-15.571l0.168-126.389c1.099,0.092,2.191,0.146,3.271,0.146
			c1.042,0,2.096-0.052,3.149-0.139l-0.003,126.383c0,8.601,6.969,15.57,15.572,15.57c8.597,0,15.567-6.97,15.567-15.569
			l0.003-142.984c1.925-2.554,3.491-5.353,4.576-8.369c1.981,1.12,4.145,1.662,6.286,1.662c4.252,0,8.409-2.112,10.854-5.966
			c3.513-5.545,21.162-34.094,23.516-51.6C430.694,235.033,430.436,232.852,429.655,230.834z M391.493,264.463l0.006-48.621
			c5.325,7.298,10.147,15.503,12.79,21.02C402.314,243.909,396.881,254.891,391.493,264.463z"/>
		<path d="M350.881,162.973c18.771,0,32.783-17.495,33.102-46.825c0.201-20.357-9.489-32.539-33.102-32.539
			c-23.615,0-33.307,12.182-33.104,32.539C318.098,145.478,332.104,162.973,350.881,162.973z"/>
		<path d="M152.204,260.518l-2.176-3.069c-6.658-10.542-27.306-44.737-30.431-67.97c-0.64-4.81-0.057-9.728,1.688-14.237
			c0.049-0.134,1.489-3.508,4.125-8.767l-3.541-2.988l-11.473,11.42c0,0.002,0.001,0.003,0.001,0.005l10.253,76.209
			c0.034,0.222-0.021,0.448-0.154,0.629l-10.077,13.793c-0.161,0.22-0.417,0.351-0.688,0.351c-0.272,0-0.529-0.131-0.688-0.351
			l-10.078-13.793c-0.132-0.181-0.188-0.407-0.154-0.629l9.553-76.21c0.003-0.022,0.016-0.039,0.021-0.061l-11.414-11.364
			l-7.327,6.18c0,0-16.695,7.632-17.111,7.831c-21.571,10.35-39.743,47.055-42.189,53.379c-0.778,2.018-1.036,4.196-0.75,6.338
			c2.354,17.506,20.002,46.057,23.517,51.602c2.446,3.854,6.601,5.963,10.854,5.963c2.236,0,4.497-0.594,6.548-1.813
			c1.033,2.899,2.502,5.601,4.315,8.077l0.008,143.389c0,8.601,6.975,15.57,15.573,15.569c8.603,0,15.571-6.971,15.57-15.571
			l0.168-126.389c1.096,0.092,2.192,0.146,3.272,0.146c1.042,0,2.093-0.053,3.148-0.14l-0.003,126.383
			c0,8.601,6.969,15.57,15.57,15.57c8.599,0,15.571-6.97,15.571-15.569l0.002-142.984c1.926-2.555,3.491-5.353,4.576-8.369
			c1.981,1.119,4.145,1.662,6.287,1.662c4.25,0,8.409-2.112,10.856-5.965c1.429-2.26,5.206-8.336,9.339-15.928v-1.627
			c-0.047,0-0.09,0-0.135,0C165.81,271.221,157.647,267.268,152.204,260.518z M55.705,236.902
			c2.695-5.62,7.649-14.035,13.092-21.435l0.011,49.579C63.319,255.355,57.717,244.095,55.705,236.902z"/>
		<path d="M109.416,162.973c18.769,0,32.78-17.495,33.101-46.825c0.2-20.357-9.491-32.539-33.101-32.539
			c-23.615,0-33.307,12.182-33.105,32.539C76.632,145.478,90.639,162.973,109.416,162.973z"/>
	</g>
</g>
<g>
</g>
<g>
</g>
<g>
</g>
<g>
</g>
<g>
</g>
<g>
</g>
<g>
</g>
<g>
</g>
<g>
</g>
<g>
</g>
<g>
</g>
<g>
</g>
<g>
</g>
<g>
</g>
<g>
</g>
</svg>
