<?xml version="1.0" encoding="iso-8859-1"?>
<!-- Generator: Adobe Illustrator 16.0.0, SVG Export Plug-In . SVG Version: 6.00 Build 0)  -->
<!DOCTYPE svg PUBLIC "-//W3C//DTD SVG 1.1//EN" "http://www.w3.org/Graphics/SVG/1.1/DTD/svg11.dtd">
<svg version="1.1" id="Capa_1" xmlns="http://www.w3.org/2000/svg" xmlns:xlink="http://www.w3.org/1999/xlink" x="0px" y="0px"
	 width="781.466px" height="781.467px" viewBox="0 0 781.466 781.467" style="enable-background:new 0 0 781.466 781.467;"
	 xml:space="preserve">
<g>
	<polygon points="380.615,443.355 412.468,443.355 412.468,434.361 380.615,434.361 380.615,406.367 415.087,406.367 
		415.087,397.252 369.737,397.252 369.737,481.463 380.615,481.463 	"/>
	<path d="M463.44,482.834c21.481,0,39.104-15.371,39.104-44.35c0-24.998-14.871-42.605-37.863-42.605
		c-22.486,0-39.104,17.484-39.104,44.225C425.576,465.592,441.191,482.834,463.44,482.834z M464.185,404.75
		c18.11,0,26.87,17.486,26.87,34.234c0,19.105-9.761,34.979-26.993,34.979c-17.126,0-26.864-16.115-26.864-34.105
		C437.196,421.359,446.196,404.75,464.185,404.75z"/>
	<path d="M527.52,444.971h10.249c9.866,0.377,14.362,4.76,16.856,16.371c2.372,10.504,4.259,17.744,5.633,20.121h11.249
		c-1.755-3.248-3.751-11.371-6.501-23.115c-2.009-8.75-5.883-14.74-12.376-16.988v-0.379c8.871-2.994,15.866-10.371,15.866-21.49
		c0-6.504-2.372-12.242-6.617-15.996c-5.259-4.74-12.755-6.865-24.364-6.865c-7.499,0-15.358,0.625-20.864,1.746v83.09h10.87
		L527.52,444.971L527.52,444.971z M527.52,405.998c1.751-0.498,5.501-1.01,10.735-1.01c11.503,0.139,19.374,4.885,19.374,15.748
		c0,9.615-7.377,15.994-18.999,15.994h-11.11V405.998z"/>
	<path d="M362.003,600.918c-7.492,0-14.615-2.51-19.491-5.504l-2.757,9.119c4.506,3.006,13.378,5.375,21.498,5.375
		c19.862,0,29.479-11.24,29.479-24.242c0-12.365-7.245-19.242-21.482-24.732c-11.622-4.504-16.75-8.371-16.75-16.246
		c0-5.746,4.384-12.623,15.871-12.623c7.623,0,13.244,2.496,15.996,4.004l2.993-8.867c-3.749-2.137-9.994-4.129-18.61-4.129
		c-16.37,0-27.239,9.75-27.239,22.869c0,11.867,8.497,18.982,22.24,23.855c11.365,4.383,15.87,8.871,15.87,16.744
		C379.621,595.039,373.12,600.918,362.003,600.918z"/>
	<path d="M427.839,524.449l-28.614,84.205h11.244l8.74-26.48h29.857l9.007,26.48h11.621l-28.747-84.205H427.839z M421.463,573.68
		l8.24-24.365c1.626-5.127,3.004-10.25,4.26-15.256h0.243c1.242,4.883,2.505,9.873,4.368,15.377l8.25,24.244H421.463z"/>
	<polygon points="492.917,524.449 482.049,524.449 482.049,608.654 528.893,608.654 528.893,599.539 492.917,599.539 	"/>
	<polygon points="586.49,533.564 586.49,524.449 541.005,524.449 541.005,608.654 588.362,608.654 588.362,599.539 551.876,599.539 
		551.876,569.176 584.612,569.176 584.612,560.18 551.876,560.18 551.876,533.564 	"/>
	<path d="M734.967,256.802l46.498-59.559l-46.498-59.559H181.771V46.498L122.211,0L62.653,46.498v91.186H0.001v119.117h62.652
		v524.666h119.117V256.801h127.494v68.683h-70.497v353.983h446.978V325.484h-61.497v-68.682H734.967z M651.247,644.969H277.766
		V362.982h373.481V644.969z M579.25,325.484H354.261v-68.683H579.25V325.484z"/>
</g>
<g>
</g>
<g>
</g>
<g>
</g>
<g>
</g>
<g>
</g>
<g>
</g>
<g>
</g>
<g>
</g>
<g>
</g>
<g>
</g>
<g>
</g>
<g>
</g>
<g>
</g>
<g>
</g>
<g>
</g>
</svg>
