<?xml version="1.0" encoding="iso-8859-1"?>
<!-- Generator: Adobe Illustrator 18.0.0, SVG Export Plug-In . SVG Version: 6.00 Build 0)  -->
<!DOCTYPE svg PUBLIC "-//W3C//DTD SVG 1.1//EN" "http://www.w3.org/Graphics/SVG/1.1/DTD/svg11.dtd">
<svg version="1.1" id="Capa_1" xmlns="http://www.w3.org/2000/svg" xmlns:xlink="http://www.w3.org/1999/xlink" x="0px" y="0px"
	 viewBox="0 0 441.297 441.297" style="enable-background:new 0 0 441.297 441.297;" xml:space="preserve">
<g>
	<path d="M437.198,343.271c-27.178-8.227-54.76-14.876-82.626-19.945V196.297c0-2.316-1.45-4.383-3.627-5.172l-17.192-6.226v-44.152
		c0-2.315-1.45-4.383-3.627-5.171l-25.693-9.306V87.577c0-2.316-1.451-4.384-3.629-5.172l-25.691-9.297V41.437
		c0-2.315-1.45-4.382-3.626-5.171l-48.96-17.74c-1.21-0.439-2.537-0.439-3.747,0l-48.96,17.74c-2.177,0.789-3.626,2.856-3.626,5.171
		v31.671l-25.701,9.297c-2.178,0.788-3.629,2.856-3.629,5.172v38.693l-25.693,9.306c-2.177,0.788-3.627,2.856-3.627,5.171v44.152
		l-17.193,6.226c-2.177,0.788-3.627,2.856-3.627,5.171v127.03c-27.854,5.066-55.425,11.712-82.593,19.935
		c-2.748,0.832-4.594,3.59-4.025,6.404c0.653,3.229,3.917,5.125,6.99,4.191c33.079-10.023,66.765-17.681,100.838-22.947
		c8.347-1.29,16.854-1.137,25.164,0.372h0c24.88,4.517,35.644,25.165,37.301,41.475c1.679,16.521-4.794,39.193-28.526,48.856
		c-2.763,1.125-4.351,4.189-3.365,7.005c0.801,2.288,2.935,3.69,5.195,3.69c0.683,0,1.377-0.128,2.049-0.398
		c24.346-9.785,38.316-33.441,35.59-60.265c-2.104-20.706-13.672-37.505-30.773-46.053c2.272-0.216,4.545-0.422,6.82-0.618
		c3.894,1.384,9.317,3.448,11.977,4.762c0.783,0.387,1.614,0.57,2.432,0.57c2.027,0,3.977-1.125,4.936-3.065
		c0.589-1.193,0.706-2.496,0.422-3.697c0.733-0.043,1.466-0.085,2.2-0.126c18.306-1.026,36.508,4.534,50.707,16.133
		c6.613,5.402,12.37,11.877,17.061,19.284c12.723,20.09,16.689,44.804,10.891,67.835c-0.718,2.853,0.826,5.906,3.634,6.784
		c0.552,0.173,1.108,0.254,1.654,0.254c2.456,0,4.694-1.657,5.327-4.147c6.606-26.001,2.154-53.925-12.213-76.612
		c-8.184-12.923-19.224-23.325-32.234-30.675c71.306,0.34,141.947,10.956,210.021,31.583c0.532,0.161,1.068,0.238,1.597,0.238
		c2.535,0,4.864-1.766,5.397-4.447C441.754,346.844,439.934,344.099,437.198,343.271z M343.571,200.155v121.249
		c-3.269-0.544-6.543-1.06-9.82-1.561V196.598L343.571,200.155z M322.751,144.605v173.637c-6.096-0.839-12.203-1.6-18.32-2.288
		v-12.502l7.49,2.712c0.618,0.224,1.25,0.33,1.872,0.33c2.25,0,4.362-1.391,5.172-3.629c1.034-2.856-0.443-6.01-3.299-7.044
		l-11.235-4.068v-6.302l7.49,2.712c0.618,0.224,1.25,0.33,1.872,0.33c2.25,0,4.362-1.391,5.172-3.629
		c1.034-2.856-0.443-6.01-3.299-7.044l-11.235-4.068v-6.303l7.49,2.712c0.618,0.224,1.25,0.33,1.872,0.33
		c2.25,0,4.362-1.391,5.172-3.629c1.034-2.856-0.443-6.01-3.299-7.044l-11.235-4.068v-6.302l7.49,2.712
		c0.618,0.224,1.25,0.33,1.872,0.33c2.25,0,4.362-1.391,5.172-3.629c1.034-2.856-0.443-6.01-3.299-7.044l-11.235-4.068v-6.303
		l7.49,2.712c0.618,0.224,1.25,0.33,1.872,0.33c2.25,0,4.362-1.391,5.172-3.629c1.034-2.856-0.443-6.01-3.299-7.044l-11.235-4.068
		v-6.302l7.49,2.712c0.618,0.224,1.25,0.33,1.872,0.33c2.25,0,4.362-1.391,5.172-3.629c1.034-2.856-0.443-6.01-3.299-7.044
		l-11.235-4.068v-6.303l7.49,2.712c0.618,0.224,1.25,0.33,1.872,0.33c2.25,0,4.362-1.391,5.172-3.629
		c1.034-2.856-0.443-6.01-3.299-7.044l-11.235-4.068v-6.302l7.49,2.712c0.618,0.224,1.25,0.33,1.872,0.33
		c2.25,0,4.362-1.391,5.172-3.629c1.034-2.856-0.443-6.01-3.299-7.044l-11.235-4.068v-6.303l7.49,2.712
		c0.618,0.224,1.25,0.33,1.872,0.33c2.25,0,4.362-1.391,5.172-3.629c1.034-2.856-0.443-6.01-3.299-7.044l-11.235-4.068v-9.773
		L322.751,144.605z M293.431,91.436v223.365c-6.098-0.595-12.204-1.12-18.32-1.565v-16.538l6.104,2.21
		c0.618,0.224,1.25,0.33,1.872,0.33c2.25,0,4.361-1.391,5.172-3.629c1.034-2.856-0.442-6.01-3.299-7.044L275.111,285v-7.299
		l6.104,2.21c0.618,0.224,1.25,0.33,1.872,0.33c2.25,0,4.362-1.391,5.172-3.629c1.034-2.856-0.443-6.01-3.299-7.044l-9.849-3.566
		v-7.299l6.104,2.21c0.618,0.224,1.25,0.33,1.872,0.33c2.25,0,4.362-1.391,5.172-3.629c1.034-2.856-0.443-6.01-3.299-7.044
		l-9.849-3.566v-7.299l6.104,2.21c0.618,0.224,1.25,0.33,1.872,0.33c2.25,0,4.362-1.391,5.172-3.629
		c1.034-2.856-0.443-6.01-3.299-7.044l-9.849-3.566v-7.299l6.104,2.21c0.618,0.224,1.25,0.33,1.872,0.33
		c2.25,0,4.362-1.391,5.172-3.629c1.034-2.856-0.443-6.01-3.299-7.044l-9.849-3.566v-7.299l6.104,2.21
		c0.618,0.224,1.25,0.33,1.872,0.33c2.25,0,4.362-1.391,5.172-3.629c1.034-2.856-0.443-6.01-3.299-7.044l-9.849-3.566v-7.299
		l6.104,2.21c0.618,0.224,1.25,0.33,1.872,0.33c2.25,0,4.362-1.391,5.172-3.629c1.034-2.856-0.443-6.01-3.299-7.044l-9.849-3.566
		v-7.299l6.104,2.21c0.618,0.224,1.25,0.33,1.872,0.33c2.25,0,4.362-1.391,5.172-3.629c1.034-2.856-0.443-6.01-3.299-7.044
		l-9.849-3.566v-7.299l6.104,2.21c0.618,0.224,1.25,0.33,1.872,0.33c2.25,0,4.362-1.391,5.172-3.629
		c1.034-2.856-0.443-6.01-3.299-7.044l-9.849-3.566v-7.299l6.104,2.21c0.618,0.224,1.25,0.33,1.872,0.33
		c2.25,0,4.362-1.391,5.172-3.629c1.034-2.856-0.443-6.01-3.299-7.044l-9.849-3.566v-7.299l6.104,2.21
		c0.618,0.224,1.25,0.33,1.872,0.33c2.25,0,4.362-1.391,5.172-3.629c1.034-2.856-0.443-6.01-3.299-7.044l-9.849-3.566V84.806
		L293.431,91.436z M264.111,312.522c-12.625-0.732-25.282-1.147-37.96-1.239V31.54l37.96,13.754V312.522z M215.151,31.54v279.743
		c-12.678,0.093-25.335,0.507-37.96,1.239V45.294L215.151,31.54z M166.191,84.805v10.21l-9.855,3.569
		c-2.856,1.034-4.333,4.188-3.299,7.044c0.811,2.238,2.922,3.629,5.172,3.629c0.622,0,1.254-0.106,1.872-0.33l6.11-2.212v7.299
		l-9.855,3.569c-2.856,1.034-4.333,4.188-3.299,7.044c0.811,2.238,2.922,3.629,5.172,3.629c0.622,0,1.254-0.106,1.872-0.33
		l6.11-2.212v7.299l-9.855,3.569c-2.856,1.034-4.333,4.188-3.299,7.044c0.811,2.238,2.922,3.629,5.172,3.629
		c0.622,0,1.254-0.106,1.872-0.33l6.11-2.212v7.299l-9.855,3.569c-2.856,1.034-4.333,4.188-3.299,7.044
		c0.811,2.238,2.922,3.629,5.172,3.629c0.622,0,1.254-0.106,1.872-0.33l6.11-2.212v7.299l-9.855,3.569
		c-2.856,1.034-4.333,4.188-3.299,7.044c0.811,2.238,2.922,3.629,5.172,3.629c0.622,0,1.254-0.106,1.872-0.33l6.11-2.212v7.299
		l-9.855,3.569c-2.856,1.034-4.333,4.188-3.299,7.044c0.811,2.238,2.922,3.629,5.172,3.629c0.622,0,1.254-0.106,1.872-0.33
		l6.11-2.212v7.299l-9.855,3.569c-2.856,1.034-4.333,4.188-3.299,7.044c0.811,2.238,2.922,3.629,5.172,3.629
		c0.622,0,1.254-0.106,1.872-0.33l6.11-2.212v7.299l-9.855,3.569c-2.856,1.034-4.333,4.188-3.299,7.044
		c0.811,2.238,2.922,3.629,5.172,3.629c0.622,0,1.254-0.106,1.872-0.33l6.11-2.212v7.299l-9.855,3.569
		c-2.856,1.034-4.333,4.188-3.299,7.044c0.811,2.238,2.922,3.629,5.172,3.629c0.622,0,1.254-0.106,1.872-0.33l6.11-2.212v7.299
		l-9.855,3.569c-2.856,1.034-4.333,4.188-3.299,7.044c0.811,2.238,2.922,3.629,5.172,3.629c0.622,0,1.254-0.106,1.872-0.33
		l6.11-2.212v7.299l-9.855,3.569c-2.856,1.034-4.333,4.188-3.299,7.044c0.811,2.238,2.922,3.629,5.172,3.629
		c0.622,0,1.254-0.106,1.872-0.33l6.11-2.213v16.539c-6.119,0.445-12.229,0.97-18.33,1.565V91.436L166.191,84.805z M136.861,137.969
		v9.774l-11.231,4.067c-2.856,1.034-4.333,4.188-3.299,7.044c0.811,2.238,2.921,3.629,5.172,3.629c0.622,0,1.254-0.106,1.872-0.33
		l7.486-2.711v6.303l-11.231,4.067c-2.856,1.034-4.333,4.188-3.299,7.044c0.811,2.238,2.921,3.629,5.172,3.629
		c0.622,0,1.254-0.106,1.872-0.33l7.486-2.711v6.302l-11.231,4.067c-2.856,1.034-4.333,4.188-3.299,7.044
		c0.811,2.238,2.921,3.629,5.172,3.629c0.622,0,1.254-0.106,1.872-0.33l7.486-2.711v6.303l-11.231,4.067
		c-2.856,1.034-4.333,4.188-3.299,7.044c0.811,2.238,2.921,3.629,5.172,3.629c0.622,0,1.254-0.106,1.872-0.33l7.486-2.711v6.302
		l-11.231,4.067c-2.856,1.034-4.333,4.188-3.299,7.044c0.811,2.238,2.921,3.629,5.172,3.629c0.622,0,1.254-0.106,1.872-0.33
		l7.486-2.711v6.303l-11.231,4.067c-2.856,1.034-4.333,4.188-3.299,7.044c0.811,2.238,2.921,3.629,5.172,3.629
		c0.622,0,1.254-0.106,1.872-0.33l7.486-2.711v6.302l-11.231,4.067c-2.856,1.034-4.333,4.188-3.299,7.044
		c0.811,2.238,2.921,3.629,5.172,3.629c0.622,0,1.254-0.106,1.872-0.33l7.486-2.711v6.303l-11.231,4.067
		c-2.856,1.034-4.333,4.188-3.299,7.044c0.811,2.238,2.921,3.629,5.172,3.629c0.622,0,1.254-0.106,1.872-0.33l7.486-2.711v6.302
		l-11.231,4.067c-2.856,1.034-4.333,4.188-3.299,7.044c0.811,2.238,2.921,3.629,5.172,3.629c0.622,0,1.254-0.106,1.872-0.33
		l7.486-2.711v12.501c-6.117,0.688-12.224,1.449-18.32,2.288V144.605L136.861,137.969z M97.721,200.155l9.82-3.556v123.245
		c-3.277,0.501-6.551,1.016-9.82,1.561V200.155z"/>
	<path d="M233.746,56.266l20.05,7.26c0.618,0.224,1.25,0.33,1.872,0.33c2.25,0,4.362-1.391,5.172-3.629
		c1.034-2.856-0.443-6.01-3.299-7.044l-20.05-7.26c-2.855-1.035-6.01,0.443-7.044,3.299
		C229.413,52.078,230.89,55.231,233.746,56.266z"/>
	<path d="M185.629,63.856c0.622,0,1.254-0.106,1.873-0.33l20.04-7.26c2.856-1.035,4.332-4.189,3.297-7.045
		c-1.034-2.855-4.185-4.333-7.044-3.298l-20.04,7.26c-2.856,1.035-4.332,4.189-3.297,7.044
		C181.268,62.465,183.379,63.856,185.629,63.856z"/>
	<path d="M233.746,79.776l20.05,7.26c0.618,0.224,1.25,0.33,1.872,0.33c2.25,0,4.362-1.391,5.172-3.629
		c1.034-2.856-0.443-6.01-3.299-7.044l-20.05-7.26c-2.855-1.035-6.01,0.443-7.044,3.299
		C229.413,75.588,230.89,78.742,233.746,79.776z"/>
	<path d="M185.629,87.366c0.622,0,1.254-0.106,1.873-0.33l20.04-7.26c2.856-1.035,4.332-4.189,3.297-7.045
		c-1.034-2.855-4.185-4.333-7.044-3.298l-20.04,7.26c-2.856,1.035-4.332,4.189-3.297,7.044
		C181.268,85.975,183.379,87.366,185.629,87.366z"/>
	<path d="M233.746,103.286l20.05,7.26c0.618,0.224,1.25,0.33,1.872,0.33c2.25,0,4.362-1.391,5.172-3.629
		c1.034-2.856-0.443-6.01-3.299-7.044l-20.05-7.26c-2.855-1.034-6.01,0.443-7.044,3.299
		C229.413,99.098,230.89,102.252,233.746,103.286z"/>
	<path d="M185.629,110.876c0.622,0,1.254-0.106,1.873-0.33l20.04-7.26c2.856-1.035,4.332-4.189,3.297-7.045
		c-1.034-2.855-4.185-4.332-7.044-3.298l-20.04,7.26c-2.856,1.035-4.332,4.189-3.297,7.044
		C181.268,109.486,183.379,110.876,185.629,110.876z"/>
	<path d="M233.746,126.796l20.05,7.26c0.618,0.224,1.25,0.33,1.872,0.33c2.25,0,4.362-1.391,5.172-3.629
		c1.034-2.856-0.443-6.01-3.299-7.044l-20.05-7.26c-2.855-1.035-6.01,0.443-7.044,3.299
		C229.413,122.609,230.89,125.762,233.746,126.796z"/>
	<path d="M185.629,134.386c0.622,0,1.254-0.106,1.873-0.33l20.04-7.26c2.856-1.035,4.332-4.189,3.297-7.045
		c-1.034-2.855-4.185-4.333-7.044-3.298l-20.04,7.26c-2.856,1.035-4.332,4.189-3.297,7.044
		C181.268,132.996,183.379,134.386,185.629,134.386z"/>
	<path d="M257.619,170.734l-20.05-7.26c-2.856-1.034-6.01,0.443-7.044,3.299c-1.034,2.856,0.443,6.01,3.299,7.044l20.05,7.26
		c0.618,0.224,1.25,0.33,1.872,0.33c2.25,0,4.362-1.391,5.172-3.629C261.952,174.922,260.475,171.768,257.619,170.734z"/>
	<path d="M203.872,163.474l-20.04,7.26c-2.856,1.035-4.332,4.188-3.297,7.044c0.811,2.238,2.921,3.628,5.171,3.628
		c0.622,0,1.254-0.106,1.873-0.33l20.04-7.26c2.856-1.035,4.332-4.188,3.297-7.044C209.883,163.917,206.731,162.44,203.872,163.474z
		"/>
	<path d="M257.619,194.244l-20.05-7.26c-2.856-1.035-6.01,0.443-7.044,3.299c-1.034,2.856,0.443,6.01,3.299,7.044l20.05,7.26
		c0.618,0.224,1.25,0.33,1.872,0.33c2.25,0,4.362-1.391,5.172-3.629C261.952,198.432,260.475,195.279,257.619,194.244z"/>
	<path d="M203.872,186.985l-20.04,7.26c-2.856,1.035-4.332,4.188-3.297,7.044c0.811,2.238,2.921,3.628,5.171,3.628
		c0.622,0,1.254-0.106,1.873-0.33l20.04-7.26c2.856-1.035,4.332-4.188,3.297-7.044C209.883,187.427,206.731,185.949,203.872,186.985
		z"/>
	<path d="M257.619,147.224l-20.05-7.26c-2.856-1.034-6.01,0.443-7.044,3.299c-1.034,2.856,0.443,6.01,3.299,7.044l20.05,7.26
		c0.618,0.224,1.25,0.33,1.872,0.33c2.25,0,4.362-1.391,5.172-3.629C261.952,151.412,260.475,148.258,257.619,147.224z"/>
	<path d="M203.872,139.964l-20.04,7.26c-2.856,1.035-4.332,4.188-3.297,7.044c0.811,2.238,2.921,3.628,5.171,3.628
		c0.622,0,1.254-0.106,1.873-0.33l20.04-7.26c2.856-1.035,4.332-4.188,3.297-7.044C209.883,140.406,206.731,138.929,203.872,139.964
		z"/>
	<path d="M257.619,217.755l-20.05-7.26c-2.856-1.034-6.01,0.443-7.044,3.299c-1.034,2.856,0.443,6.01,3.299,7.044l20.05,7.26
		c0.618,0.224,1.25,0.33,1.872,0.33c2.25,0,4.362-1.391,5.172-3.629C261.952,221.942,260.475,218.789,257.619,217.755z"/>
	<path d="M203.872,210.495l-20.04,7.26c-2.856,1.035-4.332,4.188-3.297,7.044c0.811,2.238,2.921,3.628,5.171,3.628
		c0.622,0,1.254-0.106,1.873-0.33l20.04-7.26c2.856-1.035,4.332-4.188,3.297-7.044C209.883,210.937,206.731,209.46,203.872,210.495z
		"/>
	<path d="M257.619,241.265l-20.05-7.26c-2.856-1.034-6.01,0.443-7.044,3.299c-1.034,2.856,0.443,6.01,3.299,7.044l20.05,7.26
		c0.618,0.224,1.25,0.33,1.872,0.33c2.25,0,4.362-1.391,5.172-3.629C261.952,245.453,260.475,242.299,257.619,241.265z"/>
	<path d="M203.872,234.005l-20.04,7.26c-2.856,1.035-4.332,4.188-3.297,7.044c0.811,2.238,2.921,3.628,5.171,3.628
		c0.622,0,1.254-0.106,1.873-0.33l20.04-7.26c2.856-1.035,4.332-4.188,3.297-7.044C209.883,234.448,206.731,232.971,203.872,234.005
		z"/>
	<path d="M257.619,264.775l-20.05-7.26c-2.856-1.035-6.01,0.443-7.044,3.299c-1.034,2.856,0.443,6.01,3.299,7.044l20.05,7.26
		c0.618,0.224,1.25,0.33,1.872,0.33c2.25,0,4.362-1.391,5.172-3.629C261.952,268.963,260.475,265.809,257.619,264.775z"/>
	<path d="M203.872,257.515l-20.04,7.26c-2.856,1.035-4.332,4.188-3.297,7.044c0.811,2.238,2.921,3.628,5.171,3.628
		c0.622,0,1.254-0.106,1.873-0.33l20.04-7.26c2.856-1.035,4.332-4.188,3.297-7.044C209.883,257.958,206.731,256.48,203.872,257.515z
		"/>
	<path d="M257.619,288.285l-20.05-7.26c-2.856-1.034-6.01,0.443-7.044,3.299c-1.034,2.856,0.443,6.01,3.299,7.044l20.05,7.26
		c0.618,0.224,1.25,0.33,1.872,0.33c2.25,0,4.362-1.391,5.172-3.629C261.952,292.473,260.475,289.32,257.619,288.285z"/>
	<path d="M203.872,281.026l-20.04,7.26c-2.856,1.035-4.332,4.188-3.297,7.044c0.811,2.238,2.921,3.628,5.171,3.628
		c0.622,0,1.254-0.106,1.873-0.33l20.04-7.26c2.856-1.035,4.332-4.188,3.297-7.044C209.883,281.468,206.731,279.991,203.872,281.026
		z"/>
	<path d="M219.843,399.916c0.22,0,0.443-0.013,0.667-0.04c3.016-0.365,5.165-3.105,4.8-6.12c-0.936-7.737-2.775-15.349-5.468-22.624
		c-1.054-2.849-4.221-4.304-7.067-3.249c-2.849,1.054-4.303,4.218-3.249,7.067c2.395,6.47,4.031,13.242,4.863,20.126
		C214.727,397.867,217.1,399.916,219.843,399.916z"/>
	<path d="M209.185,350.393c-4.426-6.513-9.633-12.409-15.478-17.523c-2.286-2.001-5.76-1.768-7.761,0.517
		c-2,2.286-1.769,5.761,0.517,7.761c5.14,4.498,9.724,9.689,13.623,15.428c1.064,1.566,2.793,2.409,4.554,2.409
		c1.064,0,2.14-0.308,3.086-0.951C210.239,356.326,210.892,352.906,209.185,350.393z"/>
	<path d="M220.547,410.95c-3.014-0.352-5.748,1.809-6.1,4.826c-0.436,3.738-1.122,7.464-2.039,11.074
		c-0.748,2.944,1.032,5.937,3.976,6.685c0.455,0.115,0.91,0.171,1.358,0.171c2.456,0,4.694-1.657,5.327-4.147
		c1.037-4.081,1.812-8.29,2.304-12.509C225.726,414.033,223.564,411.302,220.547,410.95z"/>
	<path d="M336.864,124.906h75.81c2.907,0,5.312-2.262,5.49-5.163l0.011-0.169c0.023-0.341,0.042-0.682,0.042-1.029
		c0-9.021-6.244-16.67-14.737-18.719c-4.455-8.171-13.171-13.469-22.617-13.469c-7.383,0-14.342,3.191-19.171,8.578
		c-2.677-1.115-5.55-1.691-8.509-1.691c-12.29,0-22.288,9.998-22.288,22.288c0,1.685,0.207,3.414,0.615,5.139
		C332.099,123.153,334.314,124.906,336.864,124.906z M353.185,104.244c2.449,0,4.789,0.787,6.766,2.275
		c1.265,0.952,2.878,1.313,4.426,0.991c1.549-0.322,2.885-1.295,3.666-2.672c2.617-4.615,7.53-7.481,12.822-7.481
		c6.045,0,11.569,3.791,13.746,9.433c0.777,2.014,2.661,3.388,4.816,3.511c2.656,0.153,4.962,1.55,6.363,3.604h-63.775
		C342.804,108.449,347.513,104.244,353.185,104.244z"/>
	<path d="M31.408,58.139h108.832c2.903,0,5.307-2.257,5.489-5.154l0.017-0.247c0.03-0.442,0.057-0.885,0.057-1.335
		c0-12.192-8.701-22.475-20.363-24.772C119.63,15.119,107.619,7.59,94.573,7.59c-10.502,0-20.366,4.811-26.866,12.843
		c-3.991-1.945-8.356-2.955-12.87-2.955c-16.322,0-29.6,13.279-29.6,29.6c0,2.235,0.275,4.532,0.818,6.827
		C26.642,56.386,28.858,58.139,31.408,58.139z M36.237,47.077c0-10.256,8.344-18.6,18.6-18.6c4.039,0,7.896,1.296,11.154,3.748
		c1.265,0.952,2.877,1.312,4.426,0.99c1.549-0.322,2.885-1.295,3.665-2.672c4.182-7.374,12.033-11.954,20.49-11.954
		c9.661,0,18.49,6.059,21.968,15.076c0.777,2.014,2.661,3.388,4.816,3.511c6.057,0.348,11.06,4.45,12.792,9.962H36.237
		C36.237,47.118,36.237,47.098,36.237,47.077z"/>
</g>
<g>
</g>
<g>
</g>
<g>
</g>
<g>
</g>
<g>
</g>
<g>
</g>
<g>
</g>
<g>
</g>
<g>
</g>
<g>
</g>
<g>
</g>
<g>
</g>
<g>
</g>
<g>
</g>
<g>
</g>
</svg>
