<?xml version="1.0" encoding="iso-8859-1"?>
<!-- Generator: Adobe Illustrator 18.0.0, SVG Export Plug-In . SVG Version: 6.00 Build 0)  -->
<!DOCTYPE svg PUBLIC "-//W3C//DTD SVG 1.1//EN" "http://www.w3.org/Graphics/SVG/1.1/DTD/svg11.dtd">
<svg version="1.1" id="Capa_1" xmlns="http://www.w3.org/2000/svg" xmlns:xlink="http://www.w3.org/1999/xlink" x="0px" y="0px"
	 viewBox="0 0 459.782 459.782" style="enable-background:new 0 0 459.782 459.782;" xml:space="preserve">
<g>
	<path d="M116.176,116.085c0.165,2.635,2.35,4.688,4.99,4.688h57.788c2.318,0,4.332-1.593,4.866-3.849
		c0.326-1.376,0.491-2.757,0.491-4.104c0-9.813-7.984-17.797-17.797-17.797c-2.17,0-4.283,0.388-6.269,1.141
		c-3.813-4.022-9.165-6.391-14.831-6.391c-7.375,0-14.19,4.07-17.776,10.377c-6.652,1.769-11.505,7.835-11.505,14.966
		c0,0.287,0.016,0.568,0.035,0.849L116.176,116.085z M131.312,109.638c1.959-0.112,3.671-1.361,4.377-3.192
		c1.541-3.992,5.449-6.674,9.725-6.674c3.744,0,7.22,2.028,9.071,5.293c0.709,1.251,1.924,2.136,3.332,2.429
		c1.407,0.291,2.874-0.035,4.024-0.9c1.367-1.029,2.983-1.572,4.673-1.572c3.591,0,6.623,2.44,7.524,5.75h-45.766
		C129.121,110.117,130.167,109.704,131.312,109.638z"/>
	<path d="M299.203,99.768c0.164,2.636,2.35,4.689,4.99,4.689h70.682c2.318,0,4.333-1.594,4.866-3.85
		c0.378-1.599,0.569-3.201,0.569-4.762c0-11.388-9.265-20.652-20.652-20.652c-2.771,0-5.464,0.546-7.968,1.602
		c-4.48-5.037-10.962-8.023-17.839-8.023c-8.778,0-16.879,4.935-21.002,12.541c-7.89,1.877-13.697,8.972-13.697,17.342
		c0,0.322,0.019,0.639,0.04,0.956L299.203,99.768z M316.538,90.841c1.959-0.113,3.671-1.361,4.378-3.192
		c2.049-5.31,7.247-8.877,12.936-8.877c4.979,0,9.603,2.698,12.065,7.041c0.71,1.251,1.925,2.136,3.333,2.429
		c1.405,0.293,2.874-0.036,4.023-0.901c1.866-1.405,4.074-2.147,6.385-2.147c5.403,0,9.88,4.044,10.563,9.264h-59.845
		C311.688,92.402,313.936,90.991,316.538,90.841z"/>
	<path d="M455.076,273.169c-15.02-2.193-30.481-3.915-46.171-5.178l34.781-59.818v14.599c0,3.038,2.463,5.5,5.5,5.5
		s5.5-2.462,5.5-5.5v-35c0-1.885-0.966-3.639-2.559-4.647c-1.595-1.009-3.593-1.13-5.296-0.323l-23.816,11.282l6.299-12.898
		c8.531-6.174,16.521-12.656,23.656-19.422c2.204-2.09,2.297-5.571,0.207-7.775c-2.092-2.204-5.571-2.297-7.775-0.206
		c-14.949,14.176-34.109,27.188-54.218,38.663c-19.412-8.016-29.989-17.175-39.359-25.294c-3.145-2.725-6.114-5.298-9.285-7.737
		c-1.847-1.42-4.386-1.524-6.342-0.258c-13.321,8.62-40.44,14.68-49.043,16.448c-23.231-21.843-40.901-41.24-53.461-55.031
		c-3.739-4.111-9.901-6.358-16.923-6.152c-7.134,0.205-13.402,2.807-16.769,6.962c-16.654,20.569-45.848,46.213-73.38,68.525
		c-7.908-1.555-34.319-7.666-58.385-23.71c-2.439-1.627-5.729-1.053-7.474,1.307C44.416,189.619,5.21,220.119,4.816,220.425
		c-2.401,1.861-2.839,5.316-0.978,7.716c1.084,1.399,2.709,2.131,4.351,2.131c1.177,0,2.363-0.376,3.365-1.153
		c0.953-0.738,14.292-11.117,28.738-24.239l1.721,4.761c0.593,1.64,1.928,2.901,3.599,3.4c0.517,0.154,1.046,0.23,1.573,0.23
		c1.176,0,2.337-0.377,3.3-1.1l13.695-10.271l12.266,4.089c2.557,0.853,5.353-0.273,6.606-2.657l6.949-13.208
		c9.956,4.149,18.961,6.873,25.639,8.58c-27.264,21.609-50.823,38.596-55.795,42.157c-19.073,3.563-37.808,8.149-55.978,13.805
		c-2.9,0.903-4.52,3.985-3.617,6.886c0.902,2.9,3.983,4.52,6.886,3.617c51.534-16.039,108.992-23.692,166.167-22.127
		c48.292,1.321,95.815,9.256,139.083,23.079c-13.322,0.55-26.52,1.418-39.456,2.65C202.86,275.446,141.345,292.119,94.888,317
		c-30.01-0.166-60.055,1.363-89.977,4.592c-3.02,0.326-5.204,3.038-4.878,6.058c0.326,3.021,3.044,5.203,6.058,4.878
		c67.558-7.289,135.753-5.798,202.695,4.43c65.895,10.068,127.318,28.083,182.566,53.545c0.745,0.344,1.528,0.506,2.298,0.506
		c2.081,0,4.071-1.187,4.999-3.199c1.271-2.759,0.065-6.026-2.693-7.297c-56.183-25.893-118.597-44.205-185.508-54.429
		c-30.369-4.64-60.992-7.493-91.697-8.583c101.18-45.696,241.188-47.11,334.735-33.448c3.009,0.438,5.799-1.642,6.237-4.647
		C460.162,276.401,458.082,273.608,455.076,273.169z M75.493,194.077l-10.568-3.523c-1.713-0.571-3.596-0.265-5.039,0.818
		l-10.054,7.541l-0.799-2.21c6.344-6.129,12.468-12.518,17.409-18.59c4.525,2.796,9.069,5.271,13.524,7.464L75.493,194.077z
		 M406.523,202.784l-23.707,28.976l-6.997-3.817c-1.631-0.889-3.602-0.895-5.238-0.016l-52.684,28.323
		c-8.198-2.682-16.519-5.143-24.945-7.383c26.142-9.347,75.733-28.814,118.134-55.426L406.523,202.784z M261.712,241.657
		l-8.187-33.202c-0.356-1.445-1.283-2.684-2.568-3.434l-10.327-6.024l-8.791-22.971l29.51,24.706l24.734,27.703
		c1.39,1.556,3.54,2.19,5.55,1.643l6.86-1.871l3.172,5.641c-14.294,5.436-24.765,8.94-28.567,10.182
		C269.32,243.194,265.523,242.407,261.712,241.657z M338.726,170.44c1.937,1.593,3.879,3.276,5.896,5.023
		c2.799,2.425,5.701,4.938,8.885,7.488l-11.983,8.23l-6.861-9.606c-1.258-1.762-3.43-2.622-5.555-2.196l-8.377,1.675l0.019-3.007
		C327.161,175.868,333.485,173.32,338.726,170.44z M309.726,181.451l-0.041,6.286c-0.011,1.654,0.724,3.225,1.999,4.278
		s2.959,1.475,4.58,1.151l11.513-2.302l7.933,11.106c1.072,1.501,2.763,2.304,4.48,2.304c1.073,0,2.158-0.314,3.109-0.967
		l19.578-13.446c4.642,3.117,9.942,6.226,16.223,9.242c-13.962,7.441-28.064,14.129-41.257,19.935
		c-15.015-11.681-28.612-23.25-40.828-34.326C300.692,183.855,305.072,182.762,309.726,181.451z M326.33,223.984
		c-4.982,2.092-9.776,4.044-14.307,5.841l-6.043-10.749c-1.235-2.197-3.8-3.276-6.241-2.611l-7.717,2.104l-21.549-24.135
		l-2.258-21.756C284.39,188.521,303.698,206.063,326.33,223.984z M208.55,128.304c1.09-1.346,4.372-2.771,8.536-2.89
		c3.68-0.115,6.939,0.875,8.474,2.561c8.01,8.795,18.076,19.847,30.315,32.354l2.44,23.518l-32.598-27.292
		c-2.185-1.829-5.405-1.687-7.42,0.328l-12.388,12.388l-1.716-3.775c-0.667-1.469-1.946-2.57-3.497-3.013
		c-1.552-0.443-3.22-0.183-4.561,0.712l-21.272,14.181l4.49-18.446C190.694,148.273,200.843,137.822,208.55,128.304z
		 M150.268,231.858c-8.315,0.13-16.625,0.447-24.918,0.954l44.186-38.663l27.319-18.212l1.238,2.723l-9.307,18.613h-8.601
		c-1.685,0-3.277,0.772-4.32,2.096L150.268,231.858z M164.81,172.163l-3.557,14.617l-54.243,47.463
		c-7.74,0.736-15.449,1.641-23.121,2.708C103.785,222.208,136.205,197.439,164.81,172.163z M164.315,231.803l18.539-23.531h9.332
		c2.083,0,3.988-1.177,4.919-3.041l11.601-23.201l9.874-9.874l12.469,32.581c0.448,1.171,1.282,2.153,2.365,2.785l9.989,5.827
		l6.442,26.125C221.839,234.651,193.113,232.089,164.315,231.803z M343.319,265.446c-3.733-1.484-7.502-2.913-11.297-4.299
		l41.146-22.12l8.385,4.574c2.322,1.266,5.216,0.701,6.891-1.346l26.216-32.042l20.862-9.883l-38.828,66.778
		C379.028,265.966,361.145,265.409,343.319,265.446z"/>
</g>
<g>
</g>
<g>
</g>
<g>
</g>
<g>
</g>
<g>
</g>
<g>
</g>
<g>
</g>
<g>
</g>
<g>
</g>
<g>
</g>
<g>
</g>
<g>
</g>
<g>
</g>
<g>
</g>
<g>
</g>
</svg>
