<?xml version="1.0" encoding="iso-8859-1"?>
<!-- Generator: Adobe Illustrator 16.0.0, SVG Export Plug-In . SVG Version: 6.00 Build 0)  -->
<!DOCTYPE svg PUBLIC "-//W3C//DTD SVG 1.1//EN" "http://www.w3.org/Graphics/SVG/1.1/DTD/svg11.dtd">
<svg version="1.1" id="Capa_1" xmlns="http://www.w3.org/2000/svg" xmlns:xlink="http://www.w3.org/1999/xlink" x="0px" y="0px"
	 width="68.003px" height="68.003px" viewBox="0 0 68.003 68.003" style="enable-background:new 0 0 68.003 68.003;"
	 xml:space="preserve">
<g>
	<g>
		<g>
			<path d="M14.861,25.691c-6.847,0-12.416-5.569-12.416-12.416S8.015,0.858,14.861,0.858c6.848,0,12.418,5.57,12.418,12.417
				S21.709,25.691,14.861,25.691z M14.861,4.858c-4.641,0-8.416,3.775-8.416,8.417c0,4.641,3.775,8.416,8.416,8.416
				c4.642,0,8.418-3.775,8.418-8.416S19.503,4.858,14.861,4.858z"/>
		</g>
		<g>
			<path d="M9.355,14.275c-0.553,0-1-0.447-1-1l-0.004-0.2c-0.007-0.21-0.007-0.361,0.056-0.688
				c0.104-0.542,0.632-0.894,1.171-0.794c0.542,0.104,0.897,0.629,0.794,1.171c-0.025,0.131-0.025,0.131-0.021,0.245l0.005,0.267
				C10.355,13.829,9.907,14.275,9.355,14.275z"/>
		</g>
		<g>
			<path d="M10.284,11.212c-0.191,0-0.385-0.055-0.556-0.169c-0.459-0.308-0.581-0.929-0.274-1.388
				c1.212-1.808,3.233-2.887,5.407-2.887c0.553,0,1,0.447,1,1c0,0.553-0.447,1-1,1c-1.506,0-2.906,0.748-3.745,2
				C10.923,11.058,10.606,11.212,10.284,11.212z"/>
		</g>
		<g>
			<path d="M42.861,25.691c-6.848,0-12.417-5.569-12.417-12.416S36.016,0.858,42.861,0.858c6.848,0,12.418,5.57,12.418,12.417
				S49.709,25.691,42.861,25.691z M42.861,4.858c-4.641,0-8.417,3.775-8.417,8.417c0,4.641,3.776,8.416,8.417,8.416
				c4.642,0,8.418-3.775,8.418-8.416S47.503,4.858,42.861,4.858z"/>
		</g>
		<g>
			<path d="M38.284,11.212c-0.191,0-0.386-0.055-0.556-0.169c-0.459-0.308-0.582-0.929-0.274-1.388
				c1.212-1.808,3.233-2.887,5.407-2.887c0.553,0,1,0.447,1,1c0,0.553-0.447,1-1,1c-1.506,0-2.906,0.748-3.745,2
				C38.923,11.058,38.605,11.212,38.284,11.212z"/>
		</g>
		<g>
			<path d="M44.188,67.145H7.051C3.164,67.145,0,64.618,0,60.872V34.734c0-3.894,3.293-7.59,7.051-7.59h37.137
				c3.822,0,6.933,3.369,6.933,7.26c0,0.05-0.002,0.197-0.005,0.245l-0.051,0.75c2.941-1.531,7.439-3.894,10.582-5.576
				c1.061-0.512,1.933-0.729,2.74-0.729c0.996,0,1.812,0.359,2.469,1.029c1.248,1.266,1.146,3.141,1.146,3.938v0.105v26.908
				c0,1.202-0.172,2.092-0.67,2.778c-0.423,0.586-1.297,1.291-2.741,1.291c-0.001,0,0.062,0,0.062,0c-0.81,0-1.646-0.224-2.7-0.547
				c-0.119-0.037-0.22-0.089-0.328-0.146c-3.828-2.017-7.956-4.156-10.613-5.488l0.103,1.664c0.004,0.039,0.007-0.125,0.007-0.086
				C51.117,64.357,48.074,67.145,44.188,67.145z M7.051,31.145C5.489,31.145,4,33.04,4,34.734v26.138
				c0,1.553,1.353,2.272,3.051,2.272h37.137c1.627,0,2.903-1.002,2.933-2.552l-0.295-4.836c-0.033-0.551,0.161-1.039,0.54-1.438
				c0.378-0.401,0.904-0.604,1.455-0.604c0.595,0,1.062,0.013,14.515,7.095c0.208,0.063,0.506,0.155,0.785,0.224l0.002-27.035
				c0.006-0.394-0.011-0.657-0.034-0.835c-0.148,0.044-0.355,0.12-0.63,0.252c-13.81,7.386-13.983,7.388-14.638,7.388
				c-0.555,0-1.084-0.229-1.463-0.637c-0.379-0.406-0.57-0.953-0.531-1.506l0.293-4.318c-0.033-1.629-1.361-3.197-2.932-3.197
				L7.051,31.145L7.051,31.145z"/>
		</g>
		<g>
			<g>
				<path d="M7,43.55c-0.553,0-1-0.446-1-1v-5.082c0-1.85,1.618-4.324,3.625-4.324h8.494c0.553,0,1,0.447,1,1c0,0.553-0.447,1-1,1
					H9.625C8.894,35.144,8,36.536,8,37.468v5.082C8,43.104,7.553,43.55,7,43.55z"/>
			</g>
			<g>
				<path d="M23.119,35.145h-1c-0.553,0-1-0.447-1-1c0-0.553,0.447-1,1-1h1c0.553,0,1,0.447,1,1
					C24.119,34.697,23.672,35.145,23.119,35.145z"/>
			</g>
		</g>
	</g>
</g>
<g>
</g>
<g>
</g>
<g>
</g>
<g>
</g>
<g>
</g>
<g>
</g>
<g>
</g>
<g>
</g>
<g>
</g>
<g>
</g>
<g>
</g>
<g>
</g>
<g>
</g>
<g>
</g>
<g>
</g>
</svg>
